<svg width="33" height="41" viewBox="0 0 33 41" fill="none" xmlns="http://www.w3.org/2000/svg">
<path d="M0.084 24.9999L3.878 15.0319H6.734L10.486 24.9999H7.574L4.788 16.5299H5.796L2.94 24.9999H0.084ZM2.548 23.3199V21.1359H8.12V23.3199H2.548ZM11.285 24.9999V15.0319H13.315L17.025 20.4639H16.143L19.839 15.0319H21.869V24.9999H19.097V19.6239L19.503 19.7359L17.473 22.6479H15.681L13.665 19.7359L14.057 19.6239V24.9999H11.285ZM25.9013 24.9999V15.0319H28.7013V24.9999H25.9013ZM22.9193 17.4119V15.0319H31.6973V17.4119H22.9193Z" fill="#22577A"/>
<path d="M9.21119 7.61689C9.71118 -2.38309 16.2282 5.03039 20.1642 10.9123M20.1642 10.9123L15.2834 10.8744M20.1642 10.9123L22.2112 7.11691" stroke="#38A3A5" stroke-width="2" stroke-linecap="round" stroke-linejoin="round"/>
<path d="M27.6628 27.6489C36.6536 32.0552 27.2698 35.1171 20.3119 36.412M20.3119 36.412L22.2731 31.9425M20.3119 36.412L22.9912 39.7909" stroke="#38A3A5" stroke-width="2" stroke-linecap="round" stroke-linejoin="round"/>
<path d="M14.0937 34.4011C11.5034 44.0727 6.6898 35.4552 4.07783 28.8775M4.07783 28.8775L8.84163 29.9402M4.07783 28.8775L1.27887 32.158" stroke="#38A3A5" stroke-width="2" stroke-linecap="round" stroke-linejoin="round"/>
</svg>
